<svg width="629" height="358" viewBox="0 0 629 358" fill="none" xmlns="http://www.w3.org/2000/svg">
<path d="M359.719 131.749C369.493 126.487 381.683 130.145 386.945 139.92C392.206 149.694 388.548 161.884 378.774 167.145L29.7538 355.031C19.9792 360.293 7.78968 356.635 2.5278 346.86C-2.73407 337.086 0.924185 324.896 10.6988 319.634L359.719 131.749Z" fill="#7ECFED"/>
<path d="M599.274 3.09928C609.049 -2.16257 621.238 1.49571 626.5 11.2703C631.762 21.0449 628.103 33.2344 618.329 38.4962L490.226 107.457C480.451 112.718 468.262 109.06 463 99.2856C457.738 89.511 461.396 77.3215 471.171 72.0596L599.274 3.09928Z" fill="#7ECFED"/>
</svg>
