<svg width="302" height="104" viewBox="0 0 302 104" fill="none" xmlns="http://www.w3.org/2000/svg">
<path d="M1.1565 31.5501C36.5175 22.8124 173.125 -4.33353 251.326 74.8181L242.076 76.6575C241.219 76.8771 240.454 77.3628 239.894 78.0439C239.333 78.725 239.005 79.5662 238.958 80.4452C238.911 81.3242 239.147 82.1953 239.632 82.9319C240.116 83.6685 240.825 84.2322 241.653 84.5412L296.452 103.764C297.132 104.003 297.862 104.062 298.572 103.935C299.281 103.809 299.945 103.501 300.499 103.043C301.053 102.585 301.478 101.992 301.732 101.321C301.987 100.65 302.061 99.9258 301.949 99.2179L292.819 41.6674C292.684 40.8223 292.289 40.0395 291.688 39.4268C291.087 38.814 290.311 38.4015 289.464 38.2459C288.618 38.0903 287.744 38.1992 286.963 38.5578C286.182 38.9165 285.531 39.5071 285.101 40.2484L279.221 50.3656C279.221 50.3656 166.373 -47.7855 0.561845 29.9471C0.455992 29.9859 0.358866 30.0451 0.276012 30.1213C0.193158 30.1974 0.126139 30.289 0.0788973 30.3909C0.0316561 30.4928 0.00510043 30.6029 0.000664299 30.715C-0.00377183 30.8271 0.0140442 30.939 0.0530885 31.0442C0.0921328 31.1495 0.151605 31.2461 0.228185 31.3285C0.304766 31.4108 0.396962 31.4774 0.49942 31.5244C0.601878 31.5714 0.7126 31.5978 0.825337 31.6022C0.938074 31.6066 1.05064 31.5889 1.1565 31.5501Z" fill="#FBBC05"/>
</svg>
