<svg width="306" height="98" viewBox="0 0 306 98" fill="none" xmlns="http://www.w3.org/2000/svg">
<path d="M304.631 59.4782C269.713 69.8465 134.512 103.299 52.7235 27.8596L61.8781 25.5931C62.7243 25.334 63.4655 24.8134 63.9941 24.107C64.5227 23.4006 64.8111 22.5451 64.8174 21.6649C64.8237 20.7846 64.5476 19.9254 64.0293 19.2121C63.5109 18.4988 62.7772 17.9685 61.9348 17.6983L6.30334 1.03764C5.61342 0.83094 4.88122 0.805921 4.17846 0.965052C3.4757 1.12418 2.82646 1.462 2.29423 1.94544C1.762 2.42888 1.36508 3.04139 1.14224 3.723C0.919437 4.40461 0.878357 5.13193 1.02307 5.83387L12.8133 62.899C12.9872 63.7369 13.4179 64.5005 14.0464 65.0848C14.6748 65.669 15.47 66.0451 16.3225 66.1612C17.175 66.2774 18.0429 66.1281 18.8068 65.7336C19.5706 65.3391 20.1929 64.719 20.5879 63.9585L25.9926 53.5795C25.9926 53.5795 143.272 146.391 305.299 61.052C305.403 61.0083 305.497 60.9446 305.577 60.8647C305.656 60.7848 305.718 60.6902 305.761 60.5862C305.803 60.4823 305.825 60.3711 305.824 60.2589C305.823 60.1467 305.8 60.0357 305.756 59.9324C305.713 59.8291 305.649 59.7353 305.568 59.6566C305.488 59.5779 305.393 59.5156 305.288 59.4735C305.184 59.4313 305.072 59.4101 304.959 59.4109C304.846 59.4117 304.735 59.4345 304.631 59.4782Z" fill="#FF8B40"/>
</svg>
