<svg width="86" height="30" viewBox="0 0 86 30" fill="none" xmlns="http://www.w3.org/2000/svg">
<path d="M1.10086 20.6939C11.037 23.1644 49.4227 30.8397 71.3966 8.46026L68.7974 7.94017C68.5565 7.87809 68.3417 7.74077 68.1841 7.54818C68.0266 7.3556 67.9345 7.11777 67.9212 6.86923C67.908 6.6207 67.9743 6.37441 68.1105 6.16615C68.2467 5.95789 68.4457 5.7985 68.6786 5.71113L84.0767 0.276008C84.2677 0.208582 84.4729 0.191914 84.6722 0.227643C84.8715 0.263372 85.0582 0.35027 85.2139 0.479833C85.3695 0.609395 85.4889 0.777185 85.5604 0.966776C85.6318 1.15637 85.6528 1.36125 85.6213 1.5614L83.0556 17.8334C83.0177 18.0723 82.9068 18.2936 82.738 18.4669C82.5692 18.6401 82.3509 18.7568 82.1131 18.8008C81.8754 18.8448 81.6298 18.8139 81.4102 18.7126C81.1907 18.6112 81.008 18.4442 80.8872 18.2346L79.2349 15.374C79.2349 15.374 47.5253 43.1254 0.933768 21.1472C0.904024 21.1362 0.876733 21.1195 0.853451 21.0979C0.83017 21.0764 0.811338 21.0505 0.798064 21.0217C0.784789 20.9929 0.777327 20.9618 0.776081 20.9301C0.774834 20.8984 0.77984 20.8667 0.790812 20.837C0.801783 20.8072 0.818494 20.7799 0.840012 20.7566C0.861531 20.7333 0.887437 20.7145 0.916227 20.7012C0.945017 20.6879 0.976129 20.6805 1.00781 20.6792C1.03949 20.678 1.07112 20.683 1.10086 20.6939V20.6939Z" fill="#1A2DAF"/>
</svg>
