<svg width="454" height="361" viewBox="0 0 454 361" fill="none" xmlns="http://www.w3.org/2000/svg">
<path d="M0 293.07C0 159.373 0 92.5238 39.3844 49.2997C42.5342 45.8428 45.8428 42.5342 49.2997 39.3844C92.5238 0 159.373 0 293.07 0H395.369C417.459 0 428.504 0 436.702 4.80672C441.865 7.8339 446.166 12.1346 449.193 17.2979C454 25.4963 454 36.5413 454 58.6311C454 172.552 454 229.512 429.211 271.792C413.599 298.42 391.42 320.599 364.792 336.211C322.512 361 265.552 361 151.631 361H67.9301C36.9407 361 21.4459 361 11.4271 351.871C10.6258 351.141 9.85891 350.374 9.12883 349.573C0 339.554 0 324.059 0 293.07Z" fill="url(#paint0_linear_86_922)"/>
<defs>
<linearGradient id="paint0_linear_86_922" x1="470.006" y1="341.134" x2="-11.1299" y2="324.329" gradientUnits="userSpaceOnUse">
<stop stop-color="#5393F3"/>
<stop offset="1" stop-color="#78C6FF"/>
</linearGradient>
</defs>
</svg>
