<svg width="57" height="58" viewBox="0 0 57 58" fill="none" xmlns="http://www.w3.org/2000/svg">
<path d="M55.1611 25.9941L46.9002 21.8777C41.9413 19.4036 37.9309 15.3228 35.4994 10.2769L31.454 1.87108C31.1826 1.31001 30.7623 0.837485 30.2405 0.50705C29.7188 0.176614 29.1165 0.00147247 28.502 0.00147247C27.8874 0.00147247 27.2851 0.176614 26.7634 0.50705C26.2416 0.837485 25.8213 1.31001 25.5499 1.87108L21.5005 10.2769C19.071 15.3243 15.0601 19.4056 10.0997 21.8777L1.84276 25.9941C1.29014 26.2692 0.824468 26.6965 0.498756 27.2276C0.173045 27.7586 0.000366211 28.372 0.000366211 28.998C0.000366211 29.6239 0.173045 30.2373 0.498756 30.7684C0.824468 31.2994 1.29014 31.7268 1.84276 32.0018L10.0997 36.1182C15.0601 38.5903 19.071 42.6716 21.5005 47.719L25.5499 56.1249C25.8213 56.6859 26.2416 57.1585 26.7634 57.4889C27.2851 57.8193 27.8874 57.9945 28.502 57.9945C29.1165 57.9945 29.7188 57.8193 30.2405 57.4889C30.7623 57.1585 31.1826 56.6859 31.454 56.1249L35.4994 47.719C37.9309 42.6731 41.9413 38.5924 46.9002 36.1182L55.1611 32.0018C55.7125 31.7257 56.1769 31.2979 56.5017 30.767C56.8264 30.2361 56.9985 29.6233 56.9985 28.998C56.9985 28.3726 56.8264 27.7598 56.5017 27.2289C56.1769 26.698 55.7125 26.2703 55.1611 25.9941Z" fill="#FE8335"/>
</svg>
