<svg width="27" height="25" viewBox="0 0 27 25" fill="none" xmlns="http://www.w3.org/2000/svg">
<path d="M14.8702 0.915166L17.6942 6.51511C17.9395 7.00174 18.4151 7.33585 18.9576 7.41575L25.2819 8.31639C26.6642 8.51249 27.2141 10.1685 26.2109 11.12L21.633 15.4779C21.2391 15.8556 21.0533 16.4003 21.1499 16.9306L22.2275 23.0825C22.4653 24.4262 21.0236 25.4503 19.7899 24.8112L14.1345 21.9059C13.644 21.6517 13.0569 21.6517 12.5738 21.9059L6.91835 24.8112C5.6847 25.4431 4.24296 24.4189 4.48077 23.0825L5.55836 16.9306C5.65497 16.4003 5.46918 15.8556 5.0753 15.4779L0.497419 11.12C-0.498419 10.1685 0.0515211 8.51249 1.42637 8.31639L7.75069 7.41575C8.30063 7.33585 8.76882 7.00174 9.01407 6.51511L11.8381 0.915166C12.4698 -0.305055 14.2534 -0.305055 14.8702 0.915166Z" fill="#FBBC05"/>
</svg>
