<svg width="18" height="17" viewBox="0 0 18 17" fill="none" xmlns="http://www.w3.org/2000/svg">
<path d="M9.79274 0.602682L11.6525 4.29052C11.814 4.611 12.1272 4.83102 12.4845 4.88364L16.6494 5.47675C17.5597 5.6059 17.9218 6.69647 17.2611 7.32307L14.2464 10.193C13.987 10.4417 13.8646 10.8004 13.9283 11.1496L14.6379 15.201C14.7945 16.0859 13.8451 16.7603 13.0326 16.3394L9.30823 14.4261C8.98522 14.2587 8.59858 14.2587 8.28047 14.4261L4.55606 16.3394C3.74364 16.7555 2.79418 16.0811 2.95079 15.201L3.66044 11.1496C3.72406 10.8004 3.60171 10.4417 3.34232 10.193L0.327557 7.32307C-0.328252 6.69647 0.0339108 5.6059 0.939319 5.47675L5.1042 4.88364C5.46636 4.83102 5.77469 4.611 5.93619 4.29052L7.79595 0.602682C8.21195 -0.200894 9.38653 -0.200894 9.79274 0.602682Z" fill="#FBBC05"/>
</svg>
