<svg width="18" height="17" viewBox="0 0 18 17" fill="none" xmlns="http://www.w3.org/2000/svg">
<path d="M9.90352 0.602682L11.7633 4.29052C11.9248 4.611 12.238 4.83102 12.5953 4.88364L16.7602 5.47675C17.6705 5.6059 18.0326 6.69647 17.3719 7.32307L14.3572 10.193C14.0978 10.4417 13.9754 10.8004 14.039 11.1496L14.7487 15.201C14.9053 16.0859 13.9558 16.7603 13.1434 16.3394L9.41901 14.4261C9.09599 14.2587 8.70936 14.2587 8.39124 14.4261L4.66684 16.3394C3.85442 16.7555 2.90496 16.0811 3.06157 15.201L3.77122 11.1496C3.83484 10.8004 3.71249 10.4417 3.4531 10.193L0.438335 7.32307C-0.217474 6.69647 0.14469 5.6059 1.0501 5.47675L5.21498 4.88364C5.57714 4.83102 5.88547 4.611 6.04697 4.29052L7.90673 0.602682C8.32273 -0.200894 9.49731 -0.200894 9.90352 0.602682Z" fill="#FBBC05" fill-opacity="0.5"/>
</svg>
