<svg width="93" height="47" viewBox="0 0 93 47" fill="none" xmlns="http://www.w3.org/2000/svg">
<path d="M20.1291 18.9546C23.1478 17.2007 25.1777 13.9885 25.1777 10.3072C25.1777 4.74957 20.5767 0.242294 14.9035 0.242294C9.2303 0.242294 4.6293 4.74957 4.6293 10.3072C4.6293 14.1006 6.77366 17.4046 9.93815 19.1178C4.67094 21.1879 0.93392 26.2254 0.93392 32.1298V41.9907C0.93392 44.2851 2.82845 46.1411 5.17059 46.1411H25.313C27.6551 46.1411 29.5497 44.2851 29.5497 41.9907V32.1298C29.5601 26.0623 25.6253 20.9125 20.1291 18.9546Z" fill="#5B6AF9"/>
<path d="M86.9271 16.1605H46.6839C43.7901 16.1605 41.4479 13.8661 41.4479 11.0312C41.4479 8.19627 43.7901 5.90184 46.6839 5.90184H86.9271C89.8209 5.90184 92.1631 8.19627 92.1631 11.0312C92.1631 13.8559 89.8209 16.1605 86.9271 16.1605Z" fill="#91B8F2"/>
<path d="M89.5399 30.8857H44.0607C42.6138 30.8857 41.4479 29.7333 41.4479 28.3261C41.4479 26.9086 42.6242 25.7665 44.0607 25.7665H89.5399C90.9868 25.7665 92.1527 26.9188 92.1527 28.3261C92.1631 29.7333 90.9868 30.8857 89.5399 30.8857Z" fill="#91B8F2"/>
<path d="M89.5399 40.4814H44.0607C42.6138 40.4814 41.4479 39.3291 41.4479 37.9219C41.4479 36.5044 42.6242 35.3623 44.0607 35.3623H89.5399C90.9868 35.3623 92.1527 36.5146 92.1527 37.9219C92.1631 39.3393 90.9868 40.4814 89.5399 40.4814Z" fill="#91B8F2"/>
</svg>
