<svg width="160" height="240" viewBox="0 0 160 240" fill="none" xmlns="http://www.w3.org/2000/svg">
<path d="M159.375 1.54792C133.687 19.9063 38.7998 94.5551 46.8331 190.67L53.2589 185.616C53.8868 185.176 54.6376 184.946 55.4023 184.961C56.1669 184.975 56.9055 185.234 57.5109 185.698C58.1163 186.163 58.5569 186.809 58.7686 187.544C58.9804 188.278 58.9523 189.062 58.6884 189.782L40.4533 236.703C40.2272 237.285 39.8544 237.799 39.3712 238.195C38.8881 238.591 38.3113 238.855 37.6972 238.961C37.0831 239.068 36.4528 239.013 35.8679 238.802C35.2831 238.592 34.7638 238.232 34.3608 237.76L1.61292 199.303C1.13243 198.738 0.839616 198.037 0.774775 197.296C0.709927 196.555 0.876246 195.81 1.25082 195.166C1.62541 194.521 2.18983 194.007 2.86643 193.694C3.54304 193.382 4.29861 193.287 5.02905 193.422L15.006 195.253C15.006 195.253 13.9945 65.6128 158.655 0.252643C158.74 0.204828 158.834 0.174257 158.931 0.162624C159.028 0.150996 159.126 0.158501 159.22 0.184829C159.313 0.211155 159.401 0.255737 159.477 0.316012C159.553 0.376287 159.617 0.45112 159.664 0.536166C159.712 0.621214 159.742 0.714818 159.753 0.811689C159.764 0.90856 159.756 1.00679 159.729 1.10074C159.702 1.19469 159.657 1.28248 159.596 1.3592C159.536 1.43592 159.461 1.50011 159.375 1.54792Z" fill="url(#paint0_linear_86_1269)"/>
<defs>
<linearGradient id="paint0_linear_86_1269" x1="-33.2338" y1="192.096" x2="163.155" y2="-3.06727" gradientUnits="userSpaceOnUse">
<stop stop-color="#53D8B0"/>
<stop offset="1" stop-color="#B3DE7D"/>
</linearGradient>
</defs>
</svg>
