<svg width="32" height="31" viewBox="0 0 32 31" fill="none" xmlns="http://www.w3.org/2000/svg">
<path d="M30.9677 13.8935L26.33 11.6933C23.546 10.3709 21.2946 8.18983 19.9295 5.49288L17.6584 1.00009C17.5061 0.700212 17.2701 0.447658 16.9772 0.271046C16.6843 0.0944342 16.3461 0.000823975 16.0011 0.000823975C15.6561 0.000823975 15.318 0.0944342 15.0251 0.271046C14.7322 0.447658 14.4962 0.700212 14.3439 1.00009L12.0705 5.49288C10.7066 8.1906 8.45481 10.372 5.67007 11.6933L1.03457 13.8935C0.724325 14.0405 0.462898 14.2689 0.280042 14.5527C0.0971865 14.8365 0.000244141 15.1644 0.000244141 15.4989C0.000244141 15.8335 0.0971865 16.1614 0.280042 16.4452C0.462898 16.729 0.724325 16.9574 1.03457 17.1044L5.67007 19.3046C8.45481 20.6259 10.7066 22.8073 12.0705 25.505L14.3439 29.9978C14.4962 30.2977 14.7322 30.5502 15.0251 30.7269C15.318 30.9035 15.6561 30.9971 16.0011 30.9971C16.3461 30.9971 16.6843 30.9035 16.9772 30.7269C17.2701 30.5502 17.5061 30.2977 17.6584 29.9978L19.9295 25.505C21.2946 22.8081 23.546 20.627 26.33 19.3046L30.9677 17.1044C31.2772 16.9569 31.538 16.7282 31.7203 16.4445C31.9026 16.1607 31.9992 15.8332 31.9992 15.4989C31.9992 15.1647 31.9026 14.8372 31.7203 14.5534C31.538 14.2697 31.2772 14.041 30.9677 13.8935Z" fill="#FE8335"/>
</svg>
