<svg width="158" height="134" viewBox="0 0 158 134" fill="none" xmlns="http://www.w3.org/2000/svg">
<g clip-path="url(#clip0_86_967)">
<path d="M69.749 61.1449L72.3603 51.744C72.4888 51.2816 72.4591 50.7895 72.2759 50.3459C72.0928 49.9022 71.7665 49.5323 71.349 49.2948L59.6221 42.6561C59.2071 42.4202 58.7254 42.3287 58.2527 42.3961C57.78 42.4635 57.3432 42.6859 57.0108 43.0283L50.5159 49.705L47.6673 46.9309L54.1622 40.2543C55.1096 39.2812 56.3533 38.6493 57.6987 38.4576C59.044 38.2658 60.415 38.5249 61.5972 39.1945L73.3217 45.8332C74.5138 46.5073 75.4455 47.5607 75.9683 48.8254C76.491 50.0901 76.5747 51.4932 76.2059 52.8109L73.5947 62.2118L69.749 61.1449Z" fill="url(#paint0_linear_86_967)"/>
<path d="M54.015 127.506L76.5667 70.6027C77.4715 68.3314 77.5344 65.812 76.744 63.4985C75.9536 61.185 74.362 59.2295 72.2558 57.9844C66.2143 54.409 57.7539 49.4086 51.5676 45.7881C49.3616 44.4977 46.7534 44.0742 44.2517 44.6002C41.7501 45.1262 39.5343 46.5641 38.0365 48.6333L1.9537 98.4236C1.10407 99.596 0.511906 100.934 0.216008 102.351C-0.0798903 103.768 -0.0728971 105.231 0.236582 106.645C0.546061 108.059 1.15104 109.392 2.01188 110.556C2.87272 111.72 3.97001 112.69 5.23196 113.401L39.3896 132.649C40.6696 133.37 42.0896 133.809 43.5538 133.936C45.0181 134.064 46.4927 133.876 47.8783 133.386C49.2639 132.897 50.5283 132.116 51.5864 131.097C52.6446 130.078 53.4719 128.845 54.0126 127.48L54.015 127.506Z" fill="#91B8F2"/>
<path d="M52.7022 125.792L74.1644 71.9707C75.0326 69.8437 75.1104 67.4766 74.3838 65.2973C73.6572 63.1179 72.1741 61.27 70.2025 60.0875C64.5645 56.7491 56.6714 52.0807 50.8958 48.7068C46.6347 46.2102 41.1415 47.4146 38.2098 51.4737L4.1139 98.6797C3.3113 99.7877 2.74898 101.051 2.46286 102.388C2.17673 103.726 2.17309 105.108 2.45219 106.447C2.72938 107.773 3.28651 109.025 4.08637 110.119C4.88623 111.213 5.91045 112.124 7.09074 112.792L38.9694 130.754C40.1691 131.427 41.5001 131.833 42.8715 131.944C44.2429 132.056 45.6221 131.87 46.9148 131.399C48.221 130.925 49.412 130.181 50.4095 129.214C51.407 128.248 52.1884 127.081 52.7022 125.792Z" fill="#1A0F91"/>
<path d="M49.6969 91.14L36.1659 83.4699C32.8116 81.5732 28.1351 82.5073 26.2313 85.8575L24.2847 89.2788C23.6295 90.4335 24.636 91.8086 25.7921 92.463L47.2732 104.645C48.4293 105.302 49.6233 105.174 50.2785 104.017L52.2228 100.595C52.6844 99.8105 52.9854 98.9417 53.1082 98.0396C53.2311 97.1376 53.1733 96.2201 52.9384 95.3405C52.7034 94.4609 52.2959 93.6366 51.7395 92.9155C51.1831 92.1945 50.4888 91.591 49.6969 91.14Z" fill="#5393F3"/>
<path d="M44.821 108.972L23.3398 96.79C22.1838 96.1356 20.2206 96.4415 19.563 97.5985L18.0889 100.192C16.1898 103.543 17.569 108.394 20.9233 110.297L34.4543 117.965C37.8086 119.862 42.186 118.283 44.0899 114.933L45.564 112.339C46.2145 111.182 45.9771 109.629 44.821 108.972Z" fill="#5393F3"/>
<path d="M59.088 76.44C58.7973 76.9514 58.4085 77.4006 57.9439 77.7618C57.4793 78.1231 56.948 78.3894 56.3804 78.5455C55.8127 78.7016 55.2198 78.7445 54.6356 78.6716C54.0513 78.5988 53.4871 78.4117 52.9753 78.121L44.3107 73.2084C43.2771 72.6215 42.5192 71.6487 42.2036 70.5038C41.888 69.3589 42.0404 68.1357 42.6276 67.1032C43.2148 66.0704 44.1886 65.313 45.3349 64.9973C46.4812 64.6816 47.7062 64.8336 48.7403 65.4198L57.4025 70.3348C57.9147 70.625 58.3647 71.0131 58.7267 71.477C59.0886 71.941 59.3554 72.4716 59.512 73.0386C59.6685 73.6056 59.7116 74.1978 59.6389 74.7814C59.5661 75.3651 59.3789 75.9287 59.088 76.44Z" fill="#5393F3"/>
<path d="M158.012 101.698L157.487 92.0766C157.456 91.4661 157.256 90.8762 156.91 90.3718L122.61 40.9609L104.569 49.7334L111.19 59.2742C111.344 59.4642 111.539 59.6173 111.761 59.7223C111.982 59.8273 112.224 59.8816 112.469 59.8812L118.743 60.1183C118.846 60.1205 118.947 60.1465 119.038 60.1942C119.129 60.2419 119.208 60.3101 119.268 60.3933C119.325 60.4753 119.362 60.5697 119.375 60.6687C119.388 60.7676 119.377 60.8683 119.344 60.9623L117.129 66.5057C117.027 66.7422 116.983 66.9994 117.001 67.2562C117.018 67.5131 117.096 67.7621 117.229 67.9828L121.661 74.3678C121.822 74.5686 122.029 74.7284 122.264 74.8343C122.499 74.9402 122.756 74.9891 123.014 74.9771L128.517 74.8965C128.631 74.8933 128.744 74.9201 128.845 74.9742C128.946 75.0283 129.031 75.1077 129.091 75.2047C129.148 75.2996 129.178 75.4082 129.178 75.5189C129.178 75.6296 129.148 75.7382 129.091 75.833L126.622 79.8044C126.46 80.0593 126.374 80.3545 126.371 80.6563C126.369 80.9581 126.452 81.2544 126.61 81.5115L129.867 86.2013C130.066 86.4561 130.337 86.6455 130.644 86.7449C130.952 86.8442 131.283 86.849 131.593 86.7585L136.3 85.426C136.418 85.3925 136.542 85.3925 136.659 85.4261C136.776 85.4596 136.881 85.5253 136.963 85.6157C137.042 85.7045 137.095 85.8141 137.114 85.9317C137.134 86.0493 137.119 86.17 137.072 86.2796L134.605 91.5478C134.485 91.7919 134.428 92.0624 134.44 92.3343C134.452 92.6062 134.533 92.8707 134.674 93.1032L138.095 98.0324C138.775 98.9517 139.771 99.5882 140.891 99.8201L156.146 103.258C156.375 103.309 156.613 103.306 156.841 103.25C157.069 103.195 157.282 103.087 157.461 102.936C157.641 102.784 157.784 102.594 157.879 102.38C157.974 102.166 158.02 101.932 158.012 101.698Z" fill="#91B8F2"/>
<path d="M151.807 96.2898C151.644 96.3961 151.462 96.469 151.271 96.5041C151.08 96.5391 150.884 96.5357 150.695 96.4939C150.505 96.4522 150.326 96.373 150.168 96.2609C150.009 96.1489 149.875 96.0063 149.772 95.8416L112.616 42.3028C112.142 41.6081 112.241 40.7024 112.908 40.2425C113.071 40.1358 113.253 40.0626 113.444 40.0274C113.635 39.9921 113.831 39.9955 114.02 40.0373C114.21 40.0791 114.389 40.1584 114.548 40.2706C114.706 40.3828 114.841 40.5256 114.943 40.6906L152.099 94.2175C152.217 94.3711 152.304 94.5467 152.353 94.7342C152.403 94.9217 152.415 95.1172 152.387 95.3092C152.36 95.5012 152.295 95.6858 152.195 95.8522C152.095 96.0186 151.963 96.1633 151.807 96.2779V96.2898Z" fill="#5393F3"/>
<path d="M129.67 32.9992L116.061 6.39451C115.512 5.32191 114.706 4.40152 113.715 3.71524C112.724 3.02897 111.578 2.59812 110.38 2.46108L89.2147 0.0497951C87.4038 -0.158495 85.5769 0.270496 84.0486 1.26286C82.5203 2.25523 81.3864 3.74885 80.8421 5.48644L74.2143 26.5833C73.7845 27.9468 73.737 29.4018 74.0768 30.7903C74.4167 32.1789 75.1309 33.4479 76.1419 34.4597L97.3073 55.6751C98.126 56.4977 99.2075 57.0078 100.364 57.1165C101.52 57.2252 102.678 56.9258 103.636 56.2702L128.101 39.3201C129.083 38.6332 129.782 37.6149 130.071 36.4531C130.359 35.2912 130.217 34.0644 129.67 32.9992ZM81.5851 24.0558C81.4782 23.9807 81.3978 23.8738 81.3552 23.7504C81.3126 23.627 81.31 23.4932 81.3478 23.3683L85.8724 8.88877C86.1384 8.03792 86.6824 7.30077 87.4175 6.79527C88.1526 6.28978 89.0361 6.04514 89.9269 6.10051L103.89 6.97304C104.018 6.98039 104.14 7.02703 104.24 7.10655C104.34 7.18607 104.413 7.29456 104.449 7.41716C104.485 7.53976 104.482 7.67045 104.44 7.7913C104.399 7.91215 104.321 8.01724 104.218 8.09213L82.3068 24.0535C82.2018 24.1291 82.0757 24.17 81.9463 24.1704C81.8169 24.1709 81.6906 24.1308 81.5851 24.0558Z" fill="url(#paint1_linear_86_967)"/>
<path d="M109.082 5.29911C109.061 5.23474 109.057 5.16654 109.067 5.09995C109.086 4.99244 109.146 4.89659 109.235 4.83313C109.324 4.76967 109.434 4.74371 109.542 4.76089L110.651 4.95295C111.195 5.04773 111.71 5.267 112.155 5.5936C112.6 5.92019 112.964 6.34523 113.217 6.83549L127.249 34.1704C127.276 34.219 127.294 34.2727 127.3 34.3281C127.306 34.3836 127.301 34.4398 127.285 34.4933C127.269 34.5467 127.242 34.5964 127.206 34.6394C127.171 34.6823 127.127 34.7176 127.077 34.7431C127.027 34.7687 126.973 34.7839 126.917 34.788C126.862 34.7921 126.806 34.7848 126.753 34.7668C126.7 34.7487 126.651 34.7202 126.609 34.6829C126.568 34.6456 126.534 34.6003 126.511 34.5497L112.483 7.203C112.289 6.82693 112.011 6.50087 111.669 6.25036C111.328 5.99985 110.933 5.83172 110.515 5.75909L109.407 5.5694C109.334 5.5571 109.265 5.5256 109.208 5.47811C109.151 5.43063 109.107 5.36886 109.082 5.29911Z" fill="#91B8F2"/>
<path d="M61.0393 38.8696C61.0393 38.6325 61.0227 38.3954 61.0274 38.1583C61.1271 34.5592 62.5586 30.6258 65.063 27.0907C68.2487 22.5858 72.5644 19.4538 76.6522 18.8942L78.4872 13.0688C70.4161 14.2543 64.9989 18.522 60.9871 24.2123C57.9319 28.5393 56.18 33.4378 56.0542 38.0066C56.0542 38.3054 56.0542 38.5946 56.0542 38.8862C58.5183 37.6699 60.4245 38.5187 61.0393 38.8696Z" fill="url(#paint2_linear_86_967)"/>
<path d="M82.7602 19.2333C84.9988 20.81 84.9964 24.5964 84.4717 28.5393C84.0539 31.6785 82.6724 35.0429 80.5763 38.0232C78.0789 41.5607 74.8552 44.228 71.4915 45.5297C68.4814 46.6986 65.7704 46.599 63.8571 45.2523C63.6038 45.0711 63.3656 44.8697 63.1449 44.6501C61.4239 43.6732 60.142 42.6798 58.8482 42.4C57.9723 42.2103 57.063 42.8932 56.7378 43.2702C57.5188 45.8024 58.9551 47.8817 60.999 49.3209C64.3224 51.6563 68.6879 51.9598 73.3027 50.1697C74.0489 49.88 74.7774 49.5467 75.4843 49.1715C78.9288 47.3482 82.1311 44.4746 84.6545 40.8921C87.2397 37.2266 88.8872 33.1888 89.4165 29.2127C90.0907 24.1388 88.6664 17.3911 84.194 14.3278L82.7602 19.2333Z" fill="url(#paint3_linear_86_967)"/>
</g>
<defs>
<linearGradient id="paint0_linear_86_967" x1="75.9466" y1="48.1468" x2="49.1467" y2="53.8239" gradientUnits="userSpaceOnUse">
<stop stop-color="#09005D"/>
<stop offset="1" stop-color="#1A0F91"/>
</linearGradient>
<linearGradient id="paint1_linear_86_967" x1="8026.29" y1="264075" x2="15646.8" y2="275078" gradientUnits="userSpaceOnUse">
<stop stop-color="#1A0F91"/>
<stop offset="1" stop-color="#1A0F91"/>
</linearGradient>
<linearGradient id="paint2_linear_86_967" x1="67.2707" y1="13.0688" x2="67.2707" y2="38.8862" gradientUnits="userSpaceOnUse">
<stop stop-color="#FF8B40"/>
<stop offset="1" stop-color="#FE8335"/>
</linearGradient>
<linearGradient id="paint3_linear_86_967" x1="56.808" y1="43.9588" x2="91.4558" y2="25.5913" gradientUnits="userSpaceOnUse">
<stop stop-color="#FF8B40"/>
<stop offset="1" stop-color="#FE8335"/>
</linearGradient>
<clipPath id="clip0_86_967">
<rect width="158" height="134" fill="white"/>
</clipPath>
</defs>
</svg>
