<svg width="105" height="95" viewBox="0 0 105 95" fill="none" xmlns="http://www.w3.org/2000/svg">
<g clip-path="url(#clip0_86_1160)">
<path d="M54.8499 2.34351H71.5256C71.6832 2.34319 71.8382 2.38328 71.9758 2.46003C72.1134 2.53678 72.2291 2.6476 72.3116 2.78181C72.3941 2.91602 72.4406 3.06914 72.447 3.22655C72.4533 3.38396 72.4193 3.54038 72.3478 3.6808L69.4151 9.32466L72.3478 14.9807C72.4193 15.1211 72.4533 15.2776 72.447 15.435C72.4406 15.5924 72.3941 15.7455 72.3116 15.8797C72.2291 16.0139 72.1134 16.1247 71.9758 16.2015C71.8382 16.2782 71.6832 16.3183 71.5256 16.318H54.8499V2.34351Z" fill="#5393F3"/>
<path d="M52.5061 3.21212e-05C53.1277 3.21212e-05 53.7239 0.246926 54.1634 0.6864C54.6029 1.12587 54.8498 1.72193 54.8498 2.34344V20.195H50.1502V2.34344C50.1502 2.03466 50.2112 1.72893 50.3297 1.44381C50.4483 1.1587 50.622 0.899814 50.841 0.682047C51.0599 0.464281 51.3197 0.291923 51.6055 0.17488C51.8912 0.0578363 52.1973 -0.00158451 52.5061 3.21212e-05Z" fill="#1E2DA8"/>
<path d="M79.0476 38.525L55.1935 18.6122C54.444 17.9885 53.4997 17.647 52.5246 17.647C51.5495 17.647 50.6051 17.9885 49.8556 18.6122L26.0015 38.525C25.5334 38.9172 25.1568 39.4071 24.8982 39.9603C24.6396 40.5135 24.5052 41.1166 24.5046 41.7273V94.9876H80.5446V41.7273C80.5439 41.1166 80.4095 40.5135 80.1509 39.9603C79.8923 39.4071 79.5157 38.9172 79.0476 38.525Z" fill="#FBBC05"/>
<path d="M24.48 55.6897L3.32539 60.0329C2.38572 60.2277 1.54185 60.7404 0.936116 61.4846C0.330385 62.2288 -0.00027285 63.1591 -6.09334e-05 64.1186V90.8285C-6.09334e-05 91.9316 0.438212 92.9896 1.21832 93.7696C1.99842 94.5496 3.05647 94.9877 4.15971 94.9877H24.48V55.6897Z" fill="#FA593B"/>
<path d="M52.5061 57.1129C58.1581 57.1129 62.7399 52.5317 62.7399 46.8804C62.7399 41.2292 58.1581 36.6479 52.5061 36.6479C46.8542 36.6479 42.2724 41.2292 42.2724 46.8804C42.2724 52.5317 46.8542 57.1129 52.5061 57.1129Z" fill="white"/>
<path d="M52.5061 68.9526C54.5629 68.9526 56.5354 69.7696 57.9898 71.2238C59.4441 72.6779 60.2612 74.6502 60.2612 76.7067V95H44.7511V76.7067C44.7511 74.6502 45.5681 72.6779 47.0225 71.2238C48.4768 69.7696 50.4494 68.9526 52.5061 68.9526Z" fill="#1E2DA8"/>
<path d="M14.7984 66.4866H9.69382C8.88737 66.4866 8.23361 67.1403 8.23361 67.9466V73.0506C8.23361 73.8569 8.88737 74.5106 9.69382 74.5106H14.7984C15.6049 74.5106 16.2586 73.8569 16.2586 73.0506V67.9466C16.2586 67.1403 15.6049 66.4866 14.7984 66.4866Z" fill="#1E2DA8"/>
<path d="M14.7984 81.2708H9.69382C8.88737 81.2708 8.23361 81.9244 8.23361 82.7308V87.8347C8.23361 88.6411 8.88737 89.2948 9.69382 89.2948H14.7984C15.6049 89.2948 16.2586 88.6411 16.2586 87.8347V82.7308C16.2586 81.9244 15.6049 81.2708 14.7984 81.2708Z" fill="#1E2DA8"/>
<path d="M80.52 55.6897L101.675 60.0329C102.614 60.2277 103.458 60.7404 104.064 61.4846C104.67 62.2288 105 63.1591 105 64.1186V90.8285C104.997 91.9328 104.556 92.9907 103.774 93.7703C102.992 94.55 101.932 94.9877 100.828 94.9877H80.52V55.6897Z" fill="#FA593B"/>
<path d="M90.2139 74.4983H95.3185C96.1249 74.4983 96.7786 73.8446 96.7786 73.0383V67.9343C96.7786 67.1279 96.1249 66.4743 95.3185 66.4743H90.2139C89.4074 66.4743 88.7537 67.1279 88.7537 67.9343V73.0383C88.7537 73.8446 89.4074 74.4983 90.2139 74.4983Z" fill="#1E2DA8"/>
<path d="M90.2139 89.3071H95.3185C96.1249 89.3071 96.7786 88.6534 96.7786 87.8471V82.7431C96.7786 81.9367 96.1249 81.2831 95.3185 81.2831H90.2139C89.4074 81.2831 88.7537 81.9367 88.7537 82.7431V87.8471C88.7537 88.6534 89.4074 89.3071 90.2139 89.3071Z" fill="#1E2DA8"/>
</g>
<defs>
<clipPath id="clip0_86_1160">
<rect width="105" height="95" fill="white"/>
</clipPath>
</defs>
</svg>
